<svg id="Capa_1" enable-background="new 0 0 512 512" height="512" viewBox="0 0 512 512" width="512" xmlns="http://www.w3.org/2000/svg"><g><g><g><path d="m208.077 343.392h43.615c18.522 0 33.537 15.015 33.537 33.537v98.191h-275.229v-98.195c0-18.52 15.013-33.534 33.534-33.534h44.185" fill="#9bc6ff"/><g><g><g><path d="m51.729 138.576-.004 44.039h-1.178c-10.297 0-19.066 8.007-19.432 18.298-.384 10.804 8.26 19.683 18.977 19.683h3.356l1.655 7.591c0 54.317 65.289 77.378 73.314 78.527l-9.529 36.678h56.806l-9.529-36.68c8.023-1.148 73.316-23.948 73.316-78.525l1.654-7.591h4.004c10.717 0 19.361-8.879 18.977-19.683-.366-10.291-9.136-18.298-19.432-18.298h-1.826l-.004-44.039" fill="#ffcbbe"/></g></g><g><g><g><path d="m101.583 222.674c-5.523 0-10-4.478-10-10v-15.75c0-5.522 4.477-10 10-10s10 4.478 10 10v15.75c0 5.522-4.477 10-10 10z"/></g></g><g><g><path d="m193.646 222.674c-5.523 0-10-4.478-10-10v-15.75c0-5.522 4.477-10 10-10s10 4.478 10 10v15.75c0 5.522-4.477 10-10 10z"/></g></g></g><g><path d="m147.637 275.547c-9.053 0-17.494-4.871-22.029-12.713-2.765-4.781-1.131-10.899 3.649-13.663 4.78-2.767 10.898-1.131 13.663 3.649.987 1.707 2.751 2.727 4.717 2.727s3.729-1.02 4.717-2.727c2.765-4.781 8.882-6.415 13.663-3.649 4.781 2.765 6.415 8.882 3.649 13.663-4.536 7.842-12.977 12.713-22.029 12.713z"/></g><path d="m242.856 182.615s18.659-27.493 18.669-78.445c.007-35.121-22.92-67.318-22.97-67.29l-3.225 2.581c-22.543 18.039-31.058 21.833-80.229 8.351-44.951-18.496-61.686 20.643-94.425 19.515-41.481-1.429-8.951 115.288-8.951 115.288s13.662-42.415 23.156-42.415c0 0 75.947 2.808 89.407 1.967 16.059-1.003 36.246-6 36.29-22.089z" fill="#ffcb7c"/></g></g><g><g><path d="m185.685 392.512 23.592-58.071-30.136-11.67-31.548 23.257z" fill="#e5ecec"/></g><g><path d="m109.544 392.512-23.592-58.071 30.136-11.67 31.548 23.257z" fill="#e5ecec"/></g></g></g><g><g><ellipse cx="393.764" cy="366.884" fill="#e5ecec" rx="108.236" ry="108.236" transform="matrix(.707 -.707 .707 .707 -144.096 385.891)"/></g><path d="m505.999 329.603c-1.741-5.241-7.399-8.082-12.642-6.339-5.241 1.74-8.08 7.4-6.339 12.642 3.306 9.956 4.982 20.378 4.982 30.978 0 54.167-44.068 98.235-98.236 98.235-54.167 0-98.235-44.068-98.235-98.235s44.068-98.235 98.235-98.235c9.144 0 18.194 1.253 26.899 3.725 4.899 1.392 9.729 3.185 14.355 5.329 5.011 2.323 10.956.143 13.278-4.868 2.323-5.011.143-10.955-4.868-13.278-5.576-2.584-11.397-4.744-17.302-6.422-10.482-2.977-21.371-4.485-32.362-4.485-56.781 0-104.335 40.235-115.666 93.689-7.33-5.609-16.485-8.947-26.406-8.947h-32.472c-.105-.996-.359-1.979-.764-2.915-1.063-2.461-3.069-4.393-5.569-5.36l-30.135-11.671c-.875-.339-1.782-.544-2.693-.628 8.653-3.338 20.305-8.95 31.672-17.259 24.03-17.566 37.037-40.1 37.72-65.277 6.283-.928 12.046-3.881 16.547-8.544 5.512-5.712 8.393-13.232 8.11-21.179-.392-11.046-6.936-20.398-16.348-24.959 5.957-13.535 13.758-37.695 13.764-71.427.003-16.015-4.154-33.159-12.356-50.957-3.166-6.869-6.324-12.436-8.416-15.896-4.563-7.547-5.417-8.051-7.122-9.055-3.577-2.105-8.083-1.785-11.325.809l-3.225 2.581c-19.049 15.244-24.229 19.386-70.763 6.671-31.107-12.55-51.591-.854-68.071 8.556-10.156 5.796-18.921 10.789-29.225 10.451-8.981-.297-16.58 3.158-21.985 10.028-9.731 12.365-11.922 35.646-6.7 71.171 2.106 14.321 4.98 27.508 7.065 36.208-10.439 4.164-17.861 14.028-18.28 25.817-.282 7.946 2.598 15.467 8.11 21.179 4.345 4.502 9.866 7.41 15.896 8.44 1.221 48.068 46.509 73.649 69.69 82.678-.792.101-1.579.296-2.341.591l-30.135 11.671c-2.5.968-4.506 2.899-5.569 5.36-.405.936-.658 1.919-.763 2.915h-32.475c-24.005 0-43.534 19.53-43.534 43.535v98.194c0 5.522 4.477 10 10 10h275.229c5.523 0 10-4.478 10-10v-42.964c21.198 31.896 57.45 52.964 98.535 52.964 65.196 0 118.236-53.04 118.236-118.235 0-12.747-2.019-25.29-6.001-37.282zm-309.813 10.492-13.432 33.063-20.754-25.327 18.653-13.751zm-141.434-260.366c1.196-1.521 2.611-2.512 5.58-2.408 15.976.552 28.648-6.688 39.833-13.073 15.419-8.803 28.735-16.403 51.131-7.188.378.155.766.288 1.161.396 47.425 13.006 61.361 10.838 83.497-5.808 6.215 11.103 15.576 31.343 15.572 52.521-.005 26.508-5.39 46.276-10.092 58.486l-32.569-48.178c-1.895-2.803-5.026-4.4-8.286-4.4-.97 0-1.951.142-2.915.436-4.199 1.279-7.072 5.148-7.085 9.538-.027 9.953-22.424 11.856-26.914 12.137-10.636.667-67.429-1.204-88.414-1.979-.124-.005-.247-.007-.37-.007-7.514 0-13.715 5.653-20.534 19.125-5.325-28.837-7.48-59.578.405-69.598zm10.35 148.457c0-.716-.077-1.431-.229-2.13l-1.655-7.591c-1.001-4.595-5.068-7.87-9.771-7.87h-3.356c-2.461 0-4.759-.976-6.469-2.748-1.709-1.771-2.602-4.107-2.514-6.579.169-4.771 4.404-8.653 9.438-8.653.215 0 .428-.009.64-.022.113.006.225.018.339.021.067.001.134.002.201.002 4.333 0 8.183-2.795 9.517-6.934 4.915-15.258 11.928-30.864 15.786-35.396 13.532.488 75.345 2.647 87.883 1.862 16.656-1.04 29.238-5.343 36.935-12.339l32.725 48.407c1.858 2.748 4.958 4.396 8.275 4.399h.009c.301 0 .599-.018.895-.045.307.028.617.045.932.045 5.035 0 9.269 3.882 9.438 8.653.088 2.472-.805 4.808-2.514 6.579-1.71 1.772-4.008 2.748-6.469 2.748h-4.004c-4.702 0-8.77 3.276-9.771 7.871l-1.654 7.591c-.153.699-.229 1.413-.229 2.129 0 19.528-9.82 36.674-29.189 50.959-16.738 12.347-33.608 17.345-35.544 17.667-2.818.403-5.331 1.989-6.908 4.359-1.578 2.369-2.07 5.299-1.354 8.055l3.886 14.958-12.757 9.404-13.301-9.806 3.781-14.555c.716-2.755.241-5.683-1.336-8.052-1.577-2.37-4.072-3.953-6.89-4.357-1.962-.33-18.81-5.363-35.593-17.781-19.357-14.321-29.173-31.431-29.173-50.851zm49.474 105.894 18.653 13.751-20.754 25.327-13.432-33.063zm160.653 131.04h-255.229v-88.194c0-12.977 10.557-23.534 23.534-23.534h39.324l17.422 42.884c1.328 3.268 4.279 5.596 7.767 6.124.5.075 1.001.112 1.498.112 2.97 0 5.818-1.324 7.734-3.662l30.336-37.018 30.336 37.018c1.916 2.338 4.764 3.662 7.734 3.662.497 0 .998-.037 1.499-.112 3.488-.528 6.439-2.855 7.767-6.124l17.422-42.884h39.32c12.979 0 23.537 10.559 23.537 23.537v88.191z"/><g><path d="" fill="#c4ead9"/><path d="m473.38 303.7c-4.173 0-8.007-2.698-9.405-6.631-1.39-3.909-.195-8.406 3.017-11.058 3.097-2.557 7.558-3.018 11.101-1.122 3.697 1.978 5.77 6.143 5.177 10.284-.694 4.838-5.019 8.527-9.89 8.527z"/></g><g><path d="m438.927 351.976h-30.341v-30.341h-29.817v30.341h-30.341v29.817h30.341v30.341h29.817v-30.341h30.341z" fill="#8481e2"/><path d="m408.586 422.135h-29.817c-5.523 0-10-4.478-10-10v-20.342h-20.341c-5.523 0-10-4.478-10-10v-29.816c0-5.523 4.477-10 10-10h20.341v-20.342c0-5.522 4.477-10 10-10h29.817c5.523 0 10 4.478 10 10v20.342h20.341c5.523 0 10 4.477 10 10v29.816c0 5.522-4.477 10-10 10h-20.341v20.342c0 5.522-4.477 10-10 10zm-19.817-20h9.817v-20.342c0-5.522 4.477-10 10-10h20.341v-9.816h-20.341c-5.523 0-10-4.478-10-10v-20.342h-9.817v20.342c0 5.522-4.477 10-10 10h-20.341v9.816h20.341c5.523 0 10 4.478 10 10z"/></g></g></g></svg>