<svg id="Capa_1" enable-background="new 0 0 512 512" height="512" viewBox="0 0 512 512" width="512" xmlns="http://www.w3.org/2000/svg"><g><path d="m280.781 363.668h-90.639c-3.314 0-6 2.686-6 6v10.567c0 6.826-7.793 10.722-13.253 6.627l-44.178-33.133c-4.418-3.313-4.418-9.94 0-13.253l44.178-33.133c5.461-4.096 13.253-.199 13.253 6.627v10.567c0 3.314 2.686 6 6 6h90.639c4.575 0 8.283 3.708 8.283 8.283v16.567c0 4.573-3.708 8.281-8.283 8.281z" fill="#83e85a"/><path d="m131.681 429.935h90.639c3.314 0 6-2.686 6-6v-10.567c0-6.826 7.793-10.722 13.253-6.627l44.178 33.133c4.418 3.313 4.418 9.94 0 13.253l-44.178 33.133c-5.461 4.095-13.253.199-13.253-6.627v-10.567c0-3.314-2.686-6-6-6h-90.639c-4.575 0-8.283-3.709-8.283-8.283v-16.567c0-4.573 3.708-8.281 8.283-8.281z" fill="#ff4b68"/><ellipse cx="156.6" cy="140.033" fill="#fdbe40" rx="132.533" ry="132.533" transform="matrix(.707 -.707 .707 .707 -53.151 151.748)"/><circle cx="156.6" cy="140.033" fill="#f58c31" r="99.4"/><circle cx="405.1" cy="256" fill="#f8c09c" r="49.7"/><path d="m488.003 355.4c0-27.541-22.401-49.85-49.977-49.699-8.962 0-56.889 0-65.851 0-27.576-.15-49.977 22.158-49.977 49.699v140.817c0 4.575 3.708 8.283 8.283 8.283h149.239c4.575 0 8.283-3.709 8.283-8.283z" fill="#118df0"/><ellipse cx="438.234" cy="371.967" fill="#d0e2ed" rx="16.567" ry="16.567" transform="matrix(.16 -.987 .987 .16 .873 744.959)"/><path d="m405.1 206.3c-3.96 0-7.807.477-11.5 1.352 21.901 5.191 38.2 24.86 38.2 48.348s-16.299 43.157-38.2 48.348c3.693.875 7.54 1.352 11.5 1.352 27.448 0 49.7-22.251 49.7-49.7s-22.251-49.7-49.7-49.7z" fill="#f8aa8b"/><path d="m438.026 305.701c-3.44 0-12.622 0-23.136 0 27.576-.15 49.977 22.158 49.977 49.699v140.816c0 4.575-3.709 8.284-8.283 8.284h23.136c4.575 0 8.283-3.708 8.283-8.284v-140.816c0-27.541-22.401-49.849-49.977-49.699z" fill="#1179f0"/><path d="m380.25 305.7 18.274 24.547c3.315 4.329 9.837 4.329 13.152 0l18.274-24.546z" fill="#f8c09c"/><path d="m380.25 305.7 26.7.001-13.35 17.932 4.924 6.614c3.315 4.329 9.837 4.329 13.152 0l18.274-24.546z" fill="#f8aa8b"/><path d="m346.242 417.088-23.975-11.988-.069.075v91.042c0 4.575 3.709 8.284 8.283 8.284h24.919v-72.595c0-6.275-3.545-12.012-9.158-14.818z" fill="#d0e2ed"/><path d="m488.003 496.216v-91.169l-.069.053-23.975 11.988c-5.612 2.806-9.158 8.543-9.158 14.818v72.594h24.919c4.574 0 8.283-3.708 8.283-8.284z" fill="#d0e2ed"/><path d="m464.867 416.633v79.583c0 4.575-3.709 8.284-8.283 8.284h23.136c4.575 0 8.283-3.708 8.283-8.284v-91.169l-.069.053z" fill="#aabfcf"/><path d="m156.6 7.5c-3.875 0-7.709.176-11.5.502 67.81 5.83 121.033 62.71 121.033 132.031s-53.223 126.202-121.033 132.032c3.791.326 7.625.502 11.5.502 73.196 0 132.533-59.337 132.533-132.534.001-73.196-59.337-132.533-132.533-132.533z" fill="#faa83c"/></g><g><path d="m478.569 314.843c-9.588-9.535-21.948-15.247-35.225-16.41 11.59-10.475 18.887-25.617 18.887-42.433 0-31.54-25.66-57.2-57.2-57.2s-57.2 25.66-57.2 57.2c0 16.817 7.297 31.959 18.889 42.434-13.295 1.169-25.646 6.88-35.228 16.41-10.875 10.815-16.864 25.219-16.864 40.557v91.751c0 4.143 3.358 7.5 7.5 7.5 4.143 0 7.5-3.357 7.5-7.5v-29.951l13.191 6.596c3.092 1.545 5.012 4.651 5.012 8.108v65.095h-17.419c-.433 0-.784-.352-.784-.783v-19.067c0-4.143-3.357-7.5-7.5-7.5-4.142 0-7.5 3.357-7.5 7.5v19.066c0 8.703 7.081 15.783 15.784 15.783h149.238c8.703 0 15.783-7.08 15.783-15.783v-140.816c.001-15.337-5.989-29.741-16.864-40.557zm-63.621-1.642-9.315 12.512c-.073.092-.252.281-.602.281-.351 0-.528-.19-.603-.282l-9.314-12.511zm-52.117-57.201c0-23.27 18.931-42.2 42.2-42.2 23.27 0 42.2 18.931 42.2 42.2s-18.931 42.2-42.2 42.2-42.2-18.93-42.2-42.2zm-13.304 154.38-19.9-9.95v-45.03c0-11.315 4.419-21.941 12.442-29.922 8.022-7.978 18.712-12.33 30.035-12.277h4.31l16.024 21.524c.02.027.04.055.061.082 3.011 3.932 7.578 6.187 12.53 6.187s9.52-2.255 12.53-6.187c.022-.027.042-.055.062-.082l16.024-21.524h4.35c.079-.001.157-.001.237-.001 11.23 0 21.791 4.355 29.757 12.278 8.023 7.98 12.442 18.607 12.442 29.922v45.03l-19.898 9.95c-8.206 4.102-13.304 12.35-13.304 21.525v65.095h-84.4v-65.095c.002-9.176-5.097-17.424-13.302-21.525zm130.123 86.62h-17.419v-65.095c0-3.457 1.92-6.564 5.012-8.109l13.19-6.595v79.016c.001.431-.351.783-.783.783z"/><path d="m438.164 396.033c13.271 0 24.067-10.796 24.067-24.066s-10.796-24.067-24.067-24.067-24.066 10.796-24.066 24.066 10.796 24.067 24.066 24.067zm0-33.133c5 0 9.067 4.067 9.067 9.066s-4.067 9.066-9.067 9.066c-4.999 0-9.066-4.067-9.066-9.066s4.067-9.066 9.066-9.066z"/><path d="m280.781 323.035h-89.139v-9.066c0-6.017-3.343-11.427-8.725-14.117-5.382-2.691-11.715-2.121-16.529 1.49l-44.178 33.133c-4.013 3.009-6.313 7.611-6.313 12.627s2.301 9.618 6.313 12.627l44.178 33.133c2.8 2.1 6.112 3.172 9.454 3.171 2.404 0 4.823-.555 7.075-1.681 5.382-2.69 8.725-8.1 8.725-14.116v-9.067h89.139c8.703 0 15.783-7.08 15.783-15.783v-16.566c.001-8.705-7.08-15.785-15.783-15.785zm.784 32.35c0 .432-.352.783-.783.783h-96.639c-4.143 0-7.5 3.357-7.5 7.5v16.567c0 .157 0 .483-.433.7-.433.215-.695.022-.821-.074l-44.178-33.133c-.077-.059-.313-.235-.313-.627s.236-.568.313-.627l44.178-33.133c.084-.064.229-.172.446-.172.106 0 .231.026.374.098.434.217.434.544.434.701v16.566c0 4.143 3.357 7.5 7.5 7.5h96.639c.432 0 .783.352.783.783z"/><path d="m290.251 433.875-44.179-33.135c-4.813-3.608-11.145-4.179-16.528-1.488-5.381 2.69-8.724 8.1-8.724 14.116v9.066h-89.14c-8.703 0-15.783 7.081-15.783 15.784v16.566c0 8.703 7.08 15.783 15.783 15.783h89.14v9.066c0 6.018 3.343 11.427 8.725 14.117 2.252 1.126 4.67 1.681 7.074 1.681 3.341 0 6.655-1.071 9.454-3.171l44.177-33.133c4.013-3.009 6.315-7.61 6.315-12.626 0-5.014-2.301-9.616-6.314-12.626zm-9 13.253-44.178 33.134c-.126.094-.386.29-.82.074-.433-.217-.433-.544-.433-.701v-16.566c0-4.143-3.357-7.5-7.5-7.5h-96.64c-.432 0-.783-.352-.783-.783v-16.566c0-.433.351-.784.783-.784h96.64c4.143 0 7.5-3.358 7.5-7.5v-16.566c0-.157 0-.483.433-.7.434-.215.695-.021.82.073l44.178 33.134c.077.059.314.235.314.627 0 .389-.236.565-.314.624z"/><path d="m156.601 0c-77.215 0-140.035 62.818-140.035 140.033s62.819 140.033 140.034 140.033c32.804 0 64.702-11.576 89.818-32.596 3.177-2.659 3.597-7.389.938-10.565-2.66-3.177-7.389-3.597-10.565-.939-22.422 18.766-50.901 29.1-80.191 29.1-68.944 0-125.034-56.09-125.034-125.033s56.09-125.033 125.035-125.033c68.943 0 125.033 56.09 125.033 125.033 0 27.494-8.75 53.577-25.306 75.429-2.501 3.302-1.852 8.006 1.449 10.508 3.304 2.502 8.006 1.853 10.508-1.449 18.546-24.481 28.349-53.696 28.349-84.487 0-77.216-62.819-140.034-140.033-140.034z"/><path d="m156.601 33.133c-58.945 0-106.9 47.955-106.9 106.9s47.955 106.9 106.9 106.9c58.944 0 106.899-47.955 106.899-106.9s-47.955-106.9-106.899-106.9zm0 198.801c-50.674 0-91.9-41.227-91.9-91.9s41.227-91.9 91.9-91.9 91.899 41.227 91.899 91.9-41.226 91.9-91.899 91.9z"/><path d="m173.95 115.184c0 4.143 3.357 7.5 7.5 7.5s7.5-3.357 7.5-7.5c0-15.256-10.618-28.071-24.85-31.463v-9.954c0-4.143-3.357-7.5-7.5-7.5s-7.5 3.357-7.5 7.5v9.954c-14.232 3.393-24.851 16.207-24.851 31.463s10.619 28.07 24.851 31.462v33.859c-5.817-2.804-9.851-8.743-9.851-15.622 0-4.143-3.357-7.5-7.5-7.5s-7.5 3.357-7.5 7.5c0 15.256 10.619 28.071 24.851 31.463v9.954c0 4.143 3.357 7.5 7.5 7.5s7.5-3.357 7.5-7.5v-9.954c14.232-3.393 24.85-16.208 24.85-31.463 0-15.256-10.618-28.07-24.85-31.462v-33.859c5.817 2.805 9.85 8.743 9.85 15.622zm-34.7 0c0-6.879 4.033-12.817 9.851-15.622v31.243c-5.818-2.805-9.851-8.743-9.851-15.621zm34.7 49.699c0 6.878-4.033 12.817-9.85 15.622v-31.242c5.817 2.804 9.85 8.742 9.85 15.62z"/></g></svg>