<svg id="Layer_1" height="512" viewBox="0 0 256 256" width="512" xmlns="http://www.w3.org/2000/svg"><g><g><g><circle cx="128" cy="128" fill="#a4c9ff" r="106.828"/></g></g><g><g><path d="m128 236.827c-60.008 0-108.828-48.819-108.828-108.827s48.82-108.827 108.828-108.827 108.828 48.819 108.828 108.827-48.82 108.827-108.828 108.827zm0-213.654c-57.802 0-104.828 47.025-104.828 104.827s47.026 104.827 104.828 104.827 104.828-47.025 104.828-104.827-47.026-104.827-104.828-104.827z" fill="#3762cc"/></g></g><g><g><circle cx="128" cy="24.239" fill="#f9a7a7" r="15.292"/></g></g><g><g><circle cx="128" cy="231.761" fill="#f9a7a7" r="15.292"/></g></g><g><g><circle cx="231.761" cy="128" fill="#ffea92" r="15.292"/></g></g><g><g><circle cx="24.239" cy="128" fill="#ffea92" r="15.292"/></g></g><g><g><circle cx="201.37" cy="201.37" fill="#6bdddd" r="15.292"/></g></g><g><g><circle cx="54.63" cy="54.63" fill="#6bdddd" r="15.292"/></g></g><g><g><circle cx="54.63" cy="201.37" fill="#e0ebfc" r="15.292"/></g></g><g><g><circle cx="201.37" cy="54.63" fill="#e0ebfc" r="15.292"/></g></g><g><g><path d="m128 41.531c-9.535 0-17.292-7.757-17.292-17.292s7.757-17.292 17.292-17.292 17.292 7.757 17.292 17.292-7.757 17.292-17.292 17.292zm0-30.584c-7.329 0-13.292 5.963-13.292 13.292s5.963 13.292 13.292 13.292 13.292-5.963 13.292-13.292-5.963-13.292-13.292-13.292z" fill="#3762cc"/></g></g><g><g><path d="m128 249.053c-9.535 0-17.292-7.757-17.292-17.292s7.757-17.292 17.292-17.292 17.292 7.757 17.292 17.292-7.757 17.292-17.292 17.292zm0-30.584c-7.329 0-13.292 5.963-13.292 13.292s5.963 13.292 13.292 13.292 13.292-5.963 13.292-13.292-5.963-13.292-13.292-13.292z" fill="#3762cc"/></g></g><g><g><path d="m231.761 145.292c-9.535 0-17.292-7.757-17.292-17.292s7.757-17.292 17.292-17.292 17.292 7.757 17.292 17.292-7.757 17.292-17.292 17.292zm0-30.584c-7.329 0-13.292 5.963-13.292 13.292s5.963 13.292 13.292 13.292 13.292-5.963 13.292-13.292-5.963-13.292-13.292-13.292z" fill="#3762cc"/></g></g><g><g><path d="m24.239 145.292c-9.535 0-17.292-7.757-17.292-17.292s7.757-17.292 17.292-17.292 17.292 7.757 17.292 17.292-7.758 17.292-17.292 17.292zm0-30.584c-7.329 0-13.292 5.963-13.292 13.292s5.963 13.292 13.292 13.292 13.292-5.963 13.292-13.292-5.963-13.292-13.292-13.292z" fill="#3762cc"/></g></g><g><g><path d="m201.37 218.654c-4.428 0-8.856-1.686-12.227-5.057-6.742-6.742-6.742-17.713 0-24.455s17.712-6.742 24.454 0 6.742 17.713 0 24.455c-3.371 3.372-7.799 5.057-12.227 5.057zm-9.399-7.884c5.183 5.182 13.615 5.182 18.798 0 5.182-5.183 5.182-13.616 0-18.799-5.183-5.183-13.614-5.183-18.798 0-5.182 5.182-5.182 13.616 0 18.799z" fill="#3762cc"/></g></g><g><g><path d="m54.63 71.914c-4.428 0-8.856-1.686-12.227-5.057-6.742-6.742-6.742-17.713 0-24.455s17.712-6.742 24.454 0 6.742 17.713 0 24.455c-3.371 3.372-7.799 5.057-12.227 5.057zm-9.399-7.885c5.183 5.182 13.615 5.182 18.798 0 5.182-5.183 5.182-13.616 0-18.799-5.183-5.182-13.614-5.182-18.798 0-5.182 5.183-5.182 13.617 0 18.799z" fill="#3762cc"/></g></g><g><g><path d="m54.63 218.654c-4.428 0-8.856-1.686-12.227-5.057-6.742-6.742-6.742-17.713 0-24.455 6.742-6.742 17.712-6.742 24.454 0s6.742 17.713 0 24.455c-3.371 3.372-7.799 5.057-12.227 5.057zm-9.399-26.683c-5.182 5.183-5.182 13.616 0 18.799 5.184 5.184 13.615 5.184 18.798 0 5.182-5.183 5.182-13.616 0-18.799-5.183-5.183-13.614-5.183-18.798 0z" fill="#3762cc"/></g></g><g><g><path d="m201.37 71.914c-4.428 0-8.856-1.686-12.227-5.057-6.742-6.742-6.742-17.713 0-24.455 6.742-6.742 17.712-6.742 24.454 0s6.742 17.713 0 24.455c-3.371 3.372-7.799 5.057-12.227 5.057zm-9.399-26.684c-5.182 5.183-5.182 13.616 0 18.799 5.184 5.183 13.615 5.183 18.798 0 5.182-5.183 5.182-13.616 0-18.799-5.183-5.181-13.614-5.181-18.798 0z" fill="#3762cc"/></g></g><g><g><g><g><path d="m104.234 176.375h-49.03v-22.468c0-6.053 4.907-10.96 10.96-10.96h27.111c6.053 0 10.96 4.907 10.96 10.96v22.468z" fill="#4671c6"/></g></g><g><g><path d="m104.234 178.375h-49.03c-1.104 0-2-.896-2-2v-22.468c0-7.146 5.814-12.96 12.96-12.96h27.11c7.146 0 12.959 5.813 12.959 12.96v22.468c.001 1.104-.895 2-1.999 2zm-47.03-4h45.03v-20.468c0-4.94-4.019-8.96-8.959-8.96h-27.11c-4.94 0-8.96 4.02-8.96 8.96v20.468z" fill="#3762cc"/></g></g><g><g><path d="m79.719 150.068c-4.413 0-7.991-3.578-7.991-7.991v-20.692h15.982v20.692c0 4.413-3.578 7.991-7.991 7.991z" fill="#f9cfcf"/></g></g><g><g><path d="m79.719 152.067c-5.509 0-9.991-4.482-9.991-9.991v-20.691c0-1.104.896-2 2-2h15.982c1.104 0 2 .896 2 2v20.691c0 5.509-4.482 9.991-9.991 9.991zm-5.991-28.682v18.691c0 3.304 2.688 5.991 5.991 5.991s5.991-2.688 5.991-5.991v-18.691z" fill="#3762cc"/></g></g><g><g><path d="m79.719 138.791c-11.325 0-20.505-9.18-20.505-20.505v-9.274c0-11.324 9.18-20.505 20.505-20.505 11.324 0 20.505 9.18 20.505 20.505v9.274c0 11.324-9.18 20.505-20.505 20.505z" fill="#f9cfcf"/></g></g><g><g><path d="m79.719 140.791c-12.409 0-22.505-10.096-22.505-22.505v-9.274c0-12.409 10.096-22.505 22.505-22.505s22.505 10.096 22.505 22.505v9.274c0 12.409-10.096 22.505-22.505 22.505zm0-50.284c-10.204 0-18.505 8.301-18.505 18.505v9.274c0 10.204 8.301 18.505 18.505 18.505s18.505-8.301 18.505-18.505v-9.274c0-10.204-8.301-18.505-18.505-18.505z" fill="#3762cc"/></g></g></g><g><g><g><path d="m200.796 176.375h-49.03v-22.468c0-6.053 4.907-10.96 10.96-10.96h27.111c6.053 0 10.96 4.907 10.96 10.96v22.468z" fill="#4671c6"/></g></g><g><g><path d="m200.796 178.375h-49.03c-1.104 0-2-.896-2-2v-22.468c0-7.146 5.813-12.96 12.959-12.96h27.11c7.146 0 12.96 5.813 12.96 12.96v22.468c.001 1.104-.895 2-1.999 2zm-47.03-4h45.03v-20.468c0-4.94-4.02-8.96-8.96-8.96h-27.11c-4.94 0-8.959 4.02-8.959 8.96v20.468z" fill="#3762cc"/></g></g><g><g><path d="m176.281 150.068c-4.413 0-7.991-3.578-7.991-7.991v-20.692h15.982v20.692c0 4.413-3.578 7.991-7.991 7.991z" fill="#f9cfcf"/></g></g><g><g><path d="m176.281 152.067c-5.509 0-9.991-4.482-9.991-9.991v-20.691c0-1.104.896-2 2-2h15.982c1.104 0 2 .896 2 2v20.691c0 5.509-4.482 9.991-9.991 9.991zm-5.991-28.682v18.691c0 3.304 2.688 5.991 5.991 5.991 3.304 0 5.991-2.688 5.991-5.991v-18.691z" fill="#3762cc"/></g></g><g><g><path d="m176.281 138.791c-11.325 0-20.505-9.18-20.505-20.505v-9.274c0-11.324 9.18-20.505 20.505-20.505 11.324 0 20.505 9.18 20.505 20.505v9.274c0 11.324-9.181 20.505-20.505 20.505z" fill="#f9cfcf"/></g></g><g><g><path d="m176.281 140.791c-12.409 0-22.505-10.096-22.505-22.505v-9.274c0-12.409 10.096-22.505 22.505-22.505s22.505 10.096 22.505 22.505v9.274c0 12.409-10.096 22.505-22.505 22.505zm0-50.284c-10.204 0-18.505 8.301-18.505 18.505v9.274c0 10.204 8.301 18.505 18.505 18.505s18.505-8.301 18.505-18.505v-9.274c0-10.204-8.302-18.505-18.505-18.505z" fill="#3762cc"/></g></g></g><g><g><g><path d="m101.007 176.375h53.986v-24.739c0-6.665-5.403-12.067-12.067-12.067h-29.851c-6.665 0-12.067 5.403-12.067 12.067v24.739z" fill="#4671c6"/></g></g><g><g><path d="m154.993 178.375h-53.985c-1.104 0-2-.896-2-2v-24.739c0-7.757 6.311-14.067 14.067-14.067h29.851c7.757 0 14.067 6.311 14.067 14.067v24.739c0 1.104-.896 2-2 2zm-51.986-4h49.985v-22.739c0-5.551-4.516-10.067-10.067-10.067h-29.851c-5.551 0-10.067 4.517-10.067 10.067z" fill="#3762cc"/></g></g><g><g><path d="m128 147.408c4.859 0 8.799-3.939 8.799-8.799v-22.783h-17.598v22.783c0 4.86 3.94 8.799 8.799 8.799z" fill="#f9cfcf"/></g></g><g><g><path d="m128 149.408c-5.955 0-10.799-4.845-10.799-10.799v-22.783c0-1.104.896-2 2-2h17.598c1.104 0 2 .896 2 2v22.783c0 5.954-4.844 10.799-10.799 10.799zm-6.799-31.582v20.783c0 3.749 3.05 6.799 6.799 6.799s6.799-3.05 6.799-6.799v-20.783z" fill="#3762cc"/></g></g><g><g><path d="m128 134.991c12.469 0 22.578-10.108 22.578-22.577v-10.212c0-12.469-10.108-22.577-22.577-22.577-12.469 0-22.577 10.108-22.577 22.577v10.212c-.001 12.469 10.107 22.577 22.576 22.577z" fill="#f9cfcf"/></g></g><g><g><path d="m128 136.991c-13.552 0-24.578-11.025-24.578-24.577v-10.212c0-13.552 11.025-24.577 24.578-24.577s24.578 11.025 24.578 24.577v10.212c0 13.552-11.026 24.577-24.578 24.577zm0-55.366c-11.347 0-20.578 9.23-20.578 20.577v10.212c0 11.347 9.231 20.577 20.578 20.577s20.578-9.23 20.578-20.577v-10.212c0-11.347-9.231-20.577-20.578-20.577z" fill="#3762cc"/></g></g></g></g></g></svg>