<svg height="512pt" viewBox="0 0 512 512" width="512pt" xmlns="http://www.w3.org/2000/svg" xmlns:xlink="http://www.w3.org/1999/xlink"><linearGradient id="a" gradientUnits="userSpaceOnUse" x1="0" x2="512" y1="256" y2="256"><stop offset="0" stop-color="#00f38d"/><stop offset="1" stop-color="#009eff"/></linearGradient><path d="m512 256c0 141.386719-114.613281 256-256 256s-256-114.613281-256-256 114.613281-256 256-256 256 114.613281 256 256zm0 0" fill="url(#a)"/><g fill="#fff"><path d="m429.457031 323.058594h-56.398437v-56.402344h-30v56.402344h-56.402344v30h56.402344v56.398437h30v-56.398437h56.398437zm0 0"/><path d="m288.457031 230.628906c0-4.976562-.488281-9.835937-1.390625-14.550781 4.042969.65625 8.183594 1.007813 12.40625 1.007813 4.378906 0 8.667969-.382813 12.847656-1.085938 20.753907 2.601562 39.582032 11.480469 54.492188 24.699219h36.152344c-13.648438-18.535157-32.160156-33.046875-53.632813-41.917969 16.75-14.183594 27.410157-35.347656 27.410157-58.96875 0-42.605469-34.664063-77.269531-77.269532-77.269531-42.609375 0-77.273437 34.664062-77.273437 77.269531 0 4.925781.484375 9.734375 1.367187 14.40625-4.085937-.667969-8.277344-1.035156-12.550781-1.035156-42.703125 0-77.441406 34.742187-77.441406 77.445312 0 23.277344 10.339843 44.175782 26.648437 58.382813-45.691406 20.117187-77.679687 65.828125-77.679687 118.871093h30c0-55.035156 44.777343-99.8125 99.816406-99.8125v-.035156c3.789063-.0625 7.519531-.394531 11.160156-.988281 13.585938 1.402344 26.386719 5.492187 37.851563 11.738281v-29.394531c16.5625-14.214844 27.085937-35.277344 27.085937-58.761719zm11.015625-138.085937c26.066406 0 47.269532 21.207031 47.269532 47.269531 0 26.066406-21.203126 47.273438-47.269532 47.273438s-47.273437-21.207032-47.273437-47.273438c0-26.0625 21.207031-47.269531 47.273437-47.269531zm-88.457031 90.644531c26.160156 0 47.441406 21.28125 47.441406 47.441406s-21.28125 47.441406-47.441406 47.441406-47.445313-21.28125-47.445313-47.441406 21.285157-47.441406 47.445313-47.441406zm0 0"/></g></svg>